<svg width="42" height="42" viewBox="0 0 42 42" fill="none" xmlns="http://www.w3.org/2000/svg">
<path d="M21 1C9.954 1 1 9.954 1 21C1 32.046 9.954 41 21 41C32.046 41 41 32.046 41 21C41 9.954 32.046 1 21 1ZM21 3.898C25.357 3.898 29.334 5.528 32.354 8.21C30.135 11.137 26.764 13.086 23.386 14.405C21.4737 10.9223 19.3306 7.57153 16.971 4.375C18.2907 4.0569 19.6435 3.89678 21.001 3.898H21ZM13.724 5.518C15.954 8.854 18.114 11.947 20.087 15.448C15.097 16.741 9.458 17.517 4.249 17.53C5.347 12.202 8.926 7.778 13.724 5.519V5.518ZM34.251 10.188C36.7223 13.208 38.0817 16.9848 38.102 20.887C34.146 20.107 30.212 19.903 26.206 20.307C25.756 19.184 25.21 18.117 24.687 16.967C28.14 15.574 31.832 13.19 34.251 10.187V10.188ZM21.476 18.094C21.904 19.004 22.4 19.97 22.866 20.957C17.296 23.413 11.371 26.695 8.296 32.449C5.34401 29.1823 3.7708 24.8999 3.906 20.499C9.871 20.471 15.726 19.725 21.476 18.094V18.094ZM30.514 22.757C33.0028 22.7575 35.4813 23.0768 37.889 23.707C37.5178 26.0232 36.6739 28.2383 35.41 30.2145C34.1461 32.1907 32.489 33.8856 30.542 35.194C29.624 31.019 28.749 27.024 27.202 22.996C28.2984 22.8362 29.405 22.756 30.513 22.756L30.514 22.757ZM37.978 23.067C37.966 23.165 37.955 23.261 37.941 23.357C37.955 23.26 37.967 23.164 37.978 23.067ZM24.038 23.777C25.614 27.85 26.851 32.36 27.681 36.749C25.5682 37.6455 23.2961 38.106 21.001 38.103C17.1988 38.1084 13.5043 36.8411 10.506 34.503C13.603 29.479 18.4 25.677 24.037 23.778L24.038 23.777Z" fill="#ED8C3E"/>
</svg>
